<svg xmlns="http://www.w3.org/2000/svg" width="72" height="151" viewBox="0 0 72 151">
  <metadata><?xpacket begin="﻿" id="W5M0MpCehiHzreSzNTczkc9d"?>
<x:xmpmeta xmlns:x="adobe:ns:meta/" x:xmptk="Adobe XMP Core 5.6-c138 79.159824, 2016/09/14-01:09:01        ">
   <rdf:RDF xmlns:rdf="http://www.w3.org/1999/02/22-rdf-syntax-ns#">
      <rdf:Description rdf:about=""/>
   </rdf:RDF>
</x:xmpmeta>
                                                                                                    
                                                                                                    
                                                                                                    
                                                                                                    
                                                                                                    
                                                                                                    
                                                                                                    
                                                                                                    
                                                                                                    
                                                                                                    
                                                                                                    
                                                                                                    
                                                                                                    
                                                                                                    
                                                                                                    
                                                                                                    
                                                                                                    
                                                                                                    
                                                                                                    
                                                                                                    
                           
<?xpacket end="w"?></metadata>
<defs>
    <style>
      .cls-1 {
        fill: #222;
        fill-rule: evenodd;
      }
    </style>
  </defs>
  <path id="iPhone_5c" data-name="iPhone 5c" class="cls-1" d="M430.107,6270.03a11.128,11.128,0,0,0-4.453-.85h-48a11.131,11.131,0,0,0-4.453.85,8.171,8.171,0,0,0-2.907,2.13,9,9,0,0,0-2.121,5.82v128.17a9,9,0,0,0,2.121,5.81,8.171,8.171,0,0,0,2.907,2.13,10.962,10.962,0,0,0,4.453.85h48a10.959,10.959,0,0,0,4.453-.85,8.175,8.175,0,0,0,2.908-2.13,9,9,0,0,0,2.12-5.81V6277.98a9.008,9.008,0,0,0-2.12-5.82A8.175,8.175,0,0,0,430.107,6270.03Zm4.282,11.22v124.9a8.251,8.251,0,0,1-1.938,5.32,7.313,7.313,0,0,1-2.643,1.93,10.194,10.194,0,0,1-4.154.79h-48a10.2,10.2,0,0,1-4.154-.79,7.3,7.3,0,0,1-2.642-1.93,8.252,8.252,0,0,1-1.939-5.32V6277.98a8.259,8.259,0,0,1,1.939-5.33,7.3,7.3,0,0,1,2.642-1.93,10.2,10.2,0,0,1,4.154-.79h48a10.194,10.194,0,0,1,4.154.79,7.313,7.313,0,0,1,2.643,1.93,8.258,8.258,0,0,1,1.938,5.33v3.27Zm0.012-10.28c-1.443-1.68-4.149-3.67-8.84-3.67h-0.032v-0.4a0.953,0.953,0,0,0-.906-0.9H413.96a0.95,0.95,0,0,0-.9.91v0.39h-35.5c-4.691,0-7.4,1.99-8.84,3.67a10.963,10.963,0,0,0-2.6,7.09v9.58h-0.306a0.787,0.787,0,0,0-.814.75v6.21a0.787,0.787,0,0,0,.814.75h0.306v3.11h-0.29a0.9,0.9,0,0,0-.83.83v9.58a0.863,0.863,0,0,0,.8.82h0.315v2.57h-0.308a0.852,0.852,0,0,0-.812.81v9.66a0.888,0.888,0,0,0,.837.81h0.283v82.7a10.99,10.99,0,0,0,2.6,7.1c1.443,1.67,4.149,3.66,8.84,3.66h48c4.691,0,7.4-1.99,8.84-3.66a10.989,10.989,0,0,0,2.6-7.1V6278.06A10.962,10.962,0,0,0,434.4,6270.97Zm-20.779-4.06a0.4,0.4,0,0,1,.338-0.35h10.663a0.394,0.394,0,0,1,.346.34v0.4H413.622v-0.39Zm-47.809,27.88a0.2,0.2,0,0,1-.2-0.19v-6.21a0.2,0.2,0,0,1,.2-0.19h0.306v6.59h-0.306Zm-0.009,14.34a0.311,0.311,0,0,1-.245-0.26v-9.58a0.351,0.351,0,0,1,.27-0.27h0.29v10.11H365.8Zm0.032,13.84a0.34,0.34,0,0,1-.277-0.24v-9.66a0.308,0.308,0,0,1,.252-0.25h0.308v10.15h-0.283Zm70.418-41.63v124.9a10.244,10.244,0,0,1-2.417,6.61c-1.341,1.55-3.866,3.4-8.276,3.4h-48c-4.41,0-6.935-1.85-8.277-3.4a10.248,10.248,0,0,1-2.416-6.61V6278.06a10.2,10.2,0,0,1,2.417-6.6c1.341-1.56,3.866-3.41,8.276-3.41h48c4.41,0,6.935,1.85,8.276,3.41a10.2,10.2,0,0,1,2.417,6.6v3.28Zm-34.694-4.82a1.59,1.59,0,1,0-1.586-1.59A1.587,1.587,0,0,0,401.56,6276.52Zm0-2.62a1.03,1.03,0,1,1-1.026,1.03A1.028,1.028,0,0,1,401.56,6273.9Zm0,1.62a0.56,0.56,0,1,0-.56-0.56A0.56,0.56,0,0,0,401.56,6275.52Zm-5.083,6.57h10.166a1.5,1.5,0,0,0,0-3H396.477A1.5,1.5,0,0,0,396.477,6282.09Zm0-2.22h10.166a0.708,0.708,0,0,1,.7.72,0.717,0.717,0,0,1-.7.73H396.477a0.717,0.717,0,0,1-.7-0.73A0.708,0.708,0,0,1,396.477,6279.87Zm5.083,119.47a6.55,6.55,0,1,0,6.528,6.55A6.544,6.544,0,0,0,401.56,6399.34Zm0,12.36a5.805,5.805,0,1,1,5.782-5.81A5.8,5.8,0,0,1,401.56,6411.7Zm1.4-8.36h-2.611a1.219,1.219,0,0,0-1.213,1.22v2.61a1.213,1.213,0,0,0,1.213,1.22h2.611a1.212,1.212,0,0,0,1.212-1.22v-2.61A1.219,1.219,0,0,0,402.959,6403.34Zm0.466,3.83a0.468,0.468,0,0,1-.466.47h-2.611a0.468,0.468,0,0,1-.467-0.47v-2.61a0.468,0.468,0,0,1,.467-0.47h2.611a0.468,0.468,0,0,1,.466.47v2.61Zm27.979-118.9H371.715a0.744,0.744,0,0,0-.746.75v106.27a0.744,0.744,0,0,0,.746.75H431.4a0.745,0.745,0,0,0,.747-0.75V6289.02A0.745,0.745,0,0,0,431.4,6288.27Zm0,107.02H371.715V6289.02H431.4v106.27Z" transform="translate(-365 -6266)"/>
</svg>
